<?xml version="1.0" standalone="no"?>
<!DOCTYPE svg PUBLIC "-//W3C//DTD SVG 20010904//EN"
 "http://www.w3.org/TR/2001/REC-SVG-20010904/DTD/svg10.dtd">
<svg version="1.0" xmlns="http://www.w3.org/2000/svg"
 width="300.000000pt" height="300.000000pt" viewBox="0 0 300.000000 300.000000"
 preserveAspectRatio="xMidYMid meet">
<metadata>
Created by potrace 1.10, written by Peter Selinger 2001-2011
</metadata>
<g transform="translate(0.000000,300.000000) scale(0.100000,-0.100000)"
fill="#000000" stroke="none">
<path d="M460 2738 c-11 -12 -29 -45 -39 -72 -11 -28 -47 -121 -81 -206 -33
-85 -61 -170 -62 -187 -2 -49 25 -73 81 -73 68 0 88 -8 95 -38 9 -43 20 -53
64 -59 47 -6 92 16 92 45 0 10 8 34 19 55 29 57 30 74 8 114 -18 34 -21 57
-23 221 -2 215 -5 222 -85 222 -37 0 -53 -5 -69 -22z m120 -218 c0 -203 1
-210 20 -210 17 0 20 -7 20 -40 0 -33 -3 -40 -20 -40 -17 0 -20 -7 -20 -50 l0
-50 -50 0 -49 0 6 50 6 50 -92 0 -91 0 0 32 c0 17 39 130 86 250 l86 218 49 0
49 0 0 -210z"/>
<path d="M445 2438 c-22 -62 -41 -116 -43 -120 -2 -4 17 -8 42 -8 l46 0 0 120
c0 66 -1 120 -3 120 -1 0 -20 -50 -42 -112z"/>
<path d="M899 2732 l-34 -30 0 -107 0 -107 38 -34 c40 -37 44 -44 23 -44 -7 0
-25 -9 -40 -21 -25 -20 -26 -23 -26 -138 0 -156 3 -159 145 -159 69 -1 107 4
122 13 18 12 26 12 53 -1 20 -11 42 -14 63 -9 18 3 46 6 62 5 17 0 64 0 105 1
41 0 86 1 100 0 38 0 141 -1 173 -1 57 0 73 0 97 -1 47 -2 95 -1 155 3 33 3
67 1 76 -3 12 -6 25 -2 43 12 25 20 26 23 26 138 0 104 -2 120 -20 136 -12 11
-27 15 -43 11 -13 -3 -37 -2 -54 3 -20 6 -35 5 -41 -1 -7 -7 -22 -6 -46 2 -26
8 -45 9 -65 2 -19 -7 -55 -7 -104 -1 -74 9 -98 8 -128 -5 -8 -4 -28 -2 -43 4
-22 8 -34 7 -56 -7 -27 -16 -31 -16 -64 2 -28 15 -41 17 -73 9 -42 -11 -203
-10 -270 1 -42 7 -56 21 -30 30 14 5 171 17 202 15 155 -7 225 -7 248 2 20 8
31 8 40 -1 34 -34 85 12 88 81 3 59 15 54 22 -9 3 -32 12 -53 27 -65 28 -22
33 -22 59 0 16 13 24 35 30 87 5 39 14 83 20 98 15 38 14 82 -2 95 -7 6 -33
11 -58 11 -24 -1 -91 1 -149 3 -91 4 -109 2 -133 -15 -26 -18 -29 -18 -46 -3
-22 20 -40 20 -68 1 -18 -13 -22 -13 -33 0 -15 18 -61 20 -77 4 -7 -7 -19 -8
-30 -3 -10 5 -54 9 -98 9 -44 1 -96 5 -116 9 -32 7 -41 4 -70 -22z m109 -29
c16 -22 17 -194 0 -211 -9 -9 -9 -12 0 -12 7 0 12 -9 12 -20 0 -19 -4 -20 -37
-14 -20 4 -49 20 -65 36 -26 27 -28 34 -28 114 0 78 2 87 26 110 19 20 31 24
52 19 15 -3 33 -13 40 -22z m737 -59 c-14 -43 -25 -100 -25 -126 0 -41 -3 -48
-20 -48 -17 0 -20 7 -20 48 0 26 -11 82 -24 125 l-24 77 23 0 c19 0 25 -8 35
-47 l13 -48 10 47 c7 36 14 48 30 50 12 2 23 3 24 3 2 -1 -8 -37 -22 -81z
m-655 -28 c0 -104 7 -129 30 -102 7 10 10 47 8 110 -3 94 -2 96 20 96 21 0 22
-3 22 -97 0 -120 -11 -147 -62 -151 -56 -5 -68 20 -68 145 l0 103 25 0 25 0 0
-104z m204 0 c9 -57 20 -114 23 -125 4 -17 1 -21 -21 -21 -21 0 -26 5 -26 25
0 20 -5 25 -25 25 -20 0 -25 -5 -25 -25 0 -19 -5 -25 -21 -25 -18 0 -20 4 -15
33 41 232 36 217 65 217 26 0 27 -2 45 -104z m86 -1 l0 -105 25 0 c18 0 25 -5
25 -20 0 -17 -7 -20 -45 -20 l-45 0 0 109 c0 60 -3 116 -6 125 -5 12 0 16 20
16 l26 0 0 -105z m110 -20 c0 -117 -1 -125 -19 -125 -18 0 -20 9 -23 125 -3
124 -3 125 20 125 22 0 22 -2 22 -125z m130 110 c0 -8 -7 -15 -15 -15 -12 0
-15 -19 -15 -110 l0 -110 -25 0 -25 0 0 110 c0 91 -3 110 -15 110 -8 0 -15 7
-15 15 0 12 13 15 55 15 42 0 55 -3 55 -15z m-624 -347 c2 -14 -5 -18 -27 -18
-26 0 -29 -3 -29 -35 0 -28 4 -35 20 -35 13 0 20 -7 20 -20 0 -13 -7 -20 -20
-20 -16 0 -20 -7 -20 -35 0 -30 3 -35 24 -35 23 0 41 -22 29 -34 -4 -3 -28 -6
-55 -6 l-48 0 0 128 0 127 52 0 c41 0 52 -3 54 -17z m132 -6 c7 -10 12 -50 12
-108 0 -85 -2 -94 -22 -108 -12 -9 -41 -16 -65 -16 l-42 0 0 122 c1 68 2 125
4 128 7 12 101 -3 113 -18z m82 -83 c0 -100 2 -110 18 -107 15 3 17 18 20 111
2 99 4 107 22 107 19 0 20 -7 20 -108 0 -122 -12 -152 -59 -152 -58 0 -66 17
-69 144 l-4 116 26 0 26 0 0 -111z m204 95 c9 -8 16 -31 16 -50 0 -27 -4 -34
-20 -34 -16 0 -20 7 -20 31 0 24 -4 30 -17 27 -16 -3 -18 -15 -18 -88 0 -73 2
-85 18 -88 14 -3 17 4 17 32 0 29 4 36 20 36 17 0 20 -7 20 -39 0 -46 -20 -71
-57 -71 -51 0 -63 23 -63 127 0 80 3 96 20 113 24 24 63 26 84 4z m126 12 c0
-9 41 -221 46 -238 4 -14 -1 -18 -20 -18 -21 0 -26 5 -26 25 0 20 -5 25 -25
25 -20 0 -25 -5 -25 -25 0 -20 -5 -25 -26 -25 -20 0 -24 4 -20 18 5 14 46 229
46 239 0 2 11 3 25 3 14 0 25 -2 25 -4z m150 -18 c0 -10 -7 -18 -15 -18 -12 0
-15 -19 -15 -110 l0 -110 -25 0 -25 0 0 110 c0 91 -3 110 -15 110 -8 0 -15 8
-15 18 0 15 8 18 55 18 45 -1 55 -4 55 -18z m63 10 c-2 -5 -3 -62 -3 -128 0
-113 -1 -120 -20 -120 -19 0 -20 7 -20 131 0 130 0 130 23 127 12 -2 21 -6 20
-10z m125 -4 c20 -14 22 -23 22 -111 0 -106 -12 -133 -58 -133 -51 0 -62 23
-62 131 0 90 2 99 22 113 12 9 29 16 38 16 9 0 26 -7 38 -16z m106 -38 c9 -30
16 -59 16 -64 0 -6 4 -13 8 -16 4 -2 6 27 4 65 -4 65 -3 69 17 69 20 0 21 -4
21 -130 0 -122 -1 -130 -19 -130 -15 0 -23 13 -36 58 -28 100 -35 104 -33 22
1 -63 -1 -76 -15 -78 -15 -3 -17 11 -17 127 0 123 1 131 19 131 15 0 23 -13
35 -54z"/>
<path d="M942 2598 c2 -75 6 -93 18 -93 12 0 15 17 15 90 0 78 -2 90 -18 93
-16 3 -18 -5 -15 -90z"/>
<path d="M1241 2629 c-1 -9 -4 -31 -7 -48 -5 -24 -3 -31 10 -31 11 0 16 8 15
28 -1 32 -17 77 -18 51z"/>
<path d="M1060 2250 c0 -82 2 -91 18 -88 15 3 17 15 17 88 0 73 -2 85 -17 88
-16 3 -18 -6 -18 -88z"/>
<path d="M1506 2269 c-10 -50 -7 -69 9 -69 12 0 13 9 8 48 -7 59 -9 60 -17 21z"/>
<path d="M1820 2250 c0 -83 1 -90 20 -90 19 0 20 7 20 90 0 83 -1 90 -20 90
-19 0 -20 -7 -20 -90z"/>
<path d="M2214 1786 c-28 -28 -34 -41 -34 -78 0 -24 5 -49 12 -56 9 -9 9 -18
0 -37 -9 -19 -12 -148 -12 -454 0 -396 1 -434 20 -507 51 -198 98 -203 150
-14 20 71 21 98 20 514 0 271 -5 446 -11 457 -6 13 -6 25 1 38 13 26 13 84 -1
114 -13 28 -58 57 -89 57 -12 0 -37 -15 -56 -34z m106 -16 c14 -14 20 -33 20
-67 l0 -48 -65 0 -65 0 0 43 c0 75 65 117 110 72z m20 -603 c0 -442 0 -443
-25 -528 -13 -46 -25 -92 -25 -101 0 -9 -4 -19 -8 -22 -5 -3 -23 48 -40 112
l-32 117 0 433 0 432 65 0 65 0 0 -443z"/>
<path d="M689 1691 l-29 -29 -1 -189 c0 -261 0 -781 0 -819 2 -60 21 -71 231
-129 107 -29 244 -67 304 -84 153 -43 190 -41 382 20 87 28 209 66 269 85 61
19 129 41 151 49 80 30 75 -8 74 556 0 437 -2 506 -16 526 -21 33 -59 50 -77
34 -10 -8 -22 -8 -46 0 -29 10 -40 6 -159 -61 -70 -39 -143 -81 -162 -92 -19
-12 -75 -45 -125 -75 -49 -29 -98 -59 -107 -65 -13 -10 -20 -9 -35 4 -17 15
-302 183 -452 266 -55 30 -69 34 -92 25 -15 -6 -33 -7 -40 -2 -24 15 -39 10
-70 -20z m364 -1119 c166 -46 308 -83 316 -82 7 0 148 44 312 97 l299 97 0
509 0 508 30 -21 30 -21 0 -510 c0 -280 -2 -509 -5 -509 -2 0 -146 -45 -320
-100 -173 -55 -329 -100 -347 -101 -18 0 -178 40 -355 88 l-323 88 0 522 0
522 28 21 27 22 3 -524 2 -523 303 -83z m-215 1110 c15 -10 132 -79 259 -152
l233 -134 2 -421 c2 -231 3 -421 2 -423 -1 -1 -120 33 -265 77 l-264 79 -3
496 c-1 273 1 496 4 496 3 0 18 -8 32 -18z m1089 -477 l-2 -495 -80 -24 c-44
-14 -156 -48 -250 -76 -93 -28 -178 -53 -187 -56 -17 -5 -18 19 -18 418 l1
423 150 85 c83 47 201 115 262 152 62 36 115 67 119 67 4 1 6 -222 5 -494z"/>
</g>
</svg>
